<svg width="44" height="43" viewBox="0 0 44 43" fill="none" xmlns="http://www.w3.org/2000/svg">
<path d="M43.6475 39.6302L32.2743 28.6582C35.2286 25.1725 36.6812 20.7246 36.3315 16.2347C35.9818 11.7447 33.8566 7.55623 30.3956 4.5355C26.9345 1.51477 22.4024 -0.107055 17.7366 0.00548878C13.0708 0.118033 8.62836 1.95633 5.32811 5.14015C2.02787 8.32397 0.122349 12.6097 0.00568949 17.1109C-0.11097 21.6121 1.57016 25.9844 4.70135 29.3233C7.83254 32.6623 12.1742 34.7125 16.8284 35.0498C21.4825 35.3872 26.093 33.9859 29.7062 31.1358L41.0794 42.1077L43.6475 39.6302ZM18.2204 31.5948C15.3467 31.5948 12.5375 30.7727 10.1481 29.2325C7.75864 27.6923 5.89632 25.5031 4.7966 22.9418C3.69687 20.3805 3.40913 17.5621 3.96977 14.843C4.5304 12.1239 5.91423 9.62628 7.94626 7.66594C9.97829 5.70559 12.5673 4.37058 15.3858 3.82973C18.2043 3.28887 21.1257 3.56646 23.7807 4.62739C26.4357 5.68832 28.7049 7.48494 30.3015 9.79006C31.898 12.0952 32.7502 14.8053 32.7502 17.5776C32.7458 21.2939 31.2136 24.8568 28.4897 27.4847C25.7658 30.1125 22.0726 31.5907 18.2204 31.5948Z" fill="white"/>
</svg>
