<svg width="279" height="52" viewBox="0 0 279 52" fill="none" xmlns="http://www.w3.org/2000/svg">
<g filter="url(#filter0_d_15_53)">
<path d="M37.8168 44.784C36.4514 45.68 34.6594 46.4053 32.4408 46.96C30.2221 47.5573 27.8754 47.8987 25.4008 47.984C21.6888 48.112 18.3181 47.5787 15.2888 46.384C12.3021 45.1893 9.76342 43.504 7.67275 41.328C5.58208 39.152 3.96075 36.592 2.80875 33.648C1.69942 30.6613 1.14475 27.4613 1.14475 24.048C1.14475 20.6773 1.63542 17.6053 2.61675 14.832C3.64075 12.0587 5.09142 9.66933 6.96875 7.664C8.84608 5.70133 11.1074 4.18666 13.7528 3.12C16.4408 2.01066 19.4488 1.456 22.7768 1.456C25.1234 1.456 27.2568 1.79733 29.1768 2.48C31.1394 3.12 32.8248 3.952 34.2327 4.976C35.5981 6.04266 36.6648 7.23733 37.4328 8.56C38.2008 9.84 38.5848 11.12 38.5848 12.4H31.2248C31.2248 11.7173 31.0328 11.0133 30.6488 10.288C30.2648 9.52 29.7101 8.83733 28.9848 8.24C28.2594 7.6 27.3421 7.088 26.2328 6.704C25.1234 6.27733 23.8648 6.064 22.4568 6.064C21.2194 6.064 19.7901 6.32 18.1688 6.832C16.5474 7.30133 15.0114 8.15467 13.5608 9.392C12.1101 10.672 10.8728 12.4213 9.84875 14.64C8.86742 16.816 8.37675 19.632 8.37675 23.088C8.37675 25.8187 8.73942 28.4213 9.46475 30.896C10.1901 33.328 11.2781 35.4613 12.7288 37.296C14.1368 39.1733 15.8861 40.6453 17.9768 41.712C20.1101 42.7787 22.5421 43.312 25.2728 43.312C27.1074 43.312 29.0274 43.12 31.0328 42.736C33.0381 42.352 34.8941 41.712 36.6007 40.816C37.1128 40.56 37.5608 40.56 37.9448 40.816C38.3714 41.0293 38.6701 41.3707 38.8408 41.84C39.0114 42.3093 39.0114 42.8213 38.8408 43.376C38.7128 43.9307 38.3714 44.4 37.8168 44.784ZM51.3698 47.344H45.0338V25.008C45.0338 23.5147 44.9698 22.4053 44.8418 21.68C44.7564 20.9547 44.4151 20.4 43.8177 20.016C43.5191 19.888 43.1564 19.76 42.7298 19.632C42.3458 19.504 41.9618 19.44 41.5778 19.44C40.9378 19.44 40.4471 19.248 40.1058 18.864C39.8071 18.48 39.6578 18.032 39.6578 17.52C39.6578 17.0933 39.8498 16.7093 40.2338 16.368C40.6604 16.0267 41.0871 15.856 41.5138 15.856H47.9778C49.0018 15.856 49.8124 16.24 50.4098 17.008C51.0498 17.7333 51.3698 18.4587 51.3698 19.184V47.344ZM42.9858 6.128C42.9858 4.976 43.4124 3.952 44.2658 3.056C45.1618 2.16 46.2284 1.712 47.4658 1.712C48.6604 1.712 49.7058 2.16 50.6018 3.056C51.4978 3.952 51.9458 4.976 51.9458 6.128C51.9458 7.32266 51.4978 8.368 50.6018 9.264C49.7058 10.1173 48.6604 10.544 47.4658 10.544C46.2284 10.544 45.1618 10.1173 44.2658 9.264C43.4124 8.368 42.9858 7.32266 42.9858 6.128ZM67.6108 18.608V22.256C67.7814 21.8293 68.1441 21.232 68.6988 20.464C69.2534 19.696 69.9788 18.9493 70.8748 18.224C71.8134 17.456 72.9228 16.7947 74.2028 16.24C75.4828 15.6427 76.9974 15.3227 78.7468 15.28C81.8188 15.2373 84.2721 16.0693 86.1068 17.776C87.9414 19.44 88.8588 21.424 88.8588 23.728V47.344H82.5868V26.864C82.5868 25.2 82.2028 23.728 81.4348 22.448C80.7094 21.1253 79.2588 20.4853 77.0828 20.528C76.0161 20.5707 74.9068 20.9547 73.7548 21.68C72.6454 22.3627 71.6214 23.2373 70.6828 24.304C69.7868 25.4133 69.0401 26.6507 68.4428 28.016C67.8454 29.3387 67.5468 30.6613 67.5468 31.984V47.344H61.2748V24.56C61.2748 24.0053 61.2534 23.5147 61.2108 23.088C61.2108 22.6187 61.1681 22.192 61.0828 21.808C61.0401 21.424 60.9121 21.104 60.6988 20.848C60.5281 20.5493 60.2934 20.272 59.9948 20.016C59.6961 19.8027 59.3334 19.6533 58.9068 19.568C58.5228 19.44 58.1387 19.376 57.7548 19.376C57.1148 19.376 56.6241 19.2053 56.2828 18.864C55.9841 18.48 55.8347 18.032 55.8347 17.52C55.8347 17.0933 55.9841 16.7093 56.2828 16.368C56.6241 16.0267 57.0081 15.856 57.4348 15.856H64.2188C65.2428 15.856 66.0534 16.2187 66.6508 16.944C67.2908 17.6267 67.6108 18.1813 67.6108 18.608ZM111.151 47.984C108.847 47.984 106.692 47.6 104.687 46.832C102.681 46.064 100.911 44.912 99.3748 43.376C97.8814 41.8827 96.7081 40.048 95.8548 37.872C95.0014 35.696 94.5748 33.2213 94.5748 30.448C94.5748 28.016 94.9588 25.8613 95.7268 23.984C96.5374 22.064 97.6468 20.464 99.0548 19.184C100.505 17.904 102.191 16.9227 104.111 16.24C106.073 15.5573 108.207 15.216 110.511 15.216C112.175 15.216 113.839 15.536 115.503 16.176C117.209 16.7733 118.724 17.648 120.047 18.8C121.412 19.9947 122.521 21.4667 123.375 23.216C124.228 24.9227 124.655 26.8853 124.655 29.104V32.752H101.295C101.593 35.952 102.681 38.512 104.559 40.432C106.479 42.3093 109.209 43.4187 112.751 43.76C113.348 43.8453 114.5 43.8027 116.207 43.632C117.956 43.4613 119.727 42.992 121.519 42.224C122.031 42.0107 122.479 42.0107 122.863 42.224C123.289 42.4373 123.588 42.736 123.759 43.12C123.929 43.5467 123.951 43.9947 123.823 44.464C123.695 44.9333 123.353 45.3173 122.799 45.616C121.177 46.512 119.471 47.1307 117.679 47.472C115.887 47.8133 113.711 47.984 111.151 47.984ZM110.319 19.12C108.228 19.12 106.265 19.824 104.431 21.232C102.639 22.64 101.593 24.9867 101.295 28.272H118.127C118.127 24.944 117.316 22.5973 115.695 21.232C114.073 19.824 112.281 19.12 110.319 19.12ZM153.736 2.8V8.624C152.2 7.89867 150.557 7.216 148.808 6.576C147.058 5.936 144.904 5.616 142.344 5.616C140.125 5.616 138.333 6.14933 136.968 7.216C135.645 8.24 134.984 9.712 134.984 11.632C134.984 13.2107 135.368 14.5547 136.136 15.664C136.904 16.7307 138.269 17.8827 140.232 19.12C141.597 20.016 143.218 20.912 145.096 21.808C146.973 22.704 148.765 23.728 150.472 24.88C152.178 26.032 153.629 27.3973 154.824 28.976C156.018 30.512 156.616 32.3893 156.616 34.608C156.616 37.808 155.698 40.496 153.864 42.672C152.029 44.8053 149.469 46.2773 146.184 47.088C144.648 47.472 143.069 47.7067 141.448 47.792C139.869 47.92 138.354 47.9413 136.904 47.856C135.453 47.728 134.109 47.536 132.872 47.28C131.677 47.0667 130.738 46.7893 130.056 46.448C129.16 46.1067 128.562 45.5733 128.264 44.848C127.965 44.08 127.88 43.376 128.008 42.736C128.136 42.0533 128.477 41.5413 129.032 41.2C129.586 40.816 130.312 40.7947 131.208 41.136C132.104 41.5627 133.234 41.968 134.6 42.352C135.965 42.6933 137.373 42.928 138.824 43.056C140.274 43.184 141.704 43.1413 143.112 42.928C144.562 42.7147 145.821 42.2027 146.888 41.392C147.613 40.88 148.274 40.112 148.872 39.088C149.469 38.0213 149.768 36.8053 149.768 35.44C149.768 34.1173 149.298 32.9867 148.36 32.048C147.464 31.0667 146.312 30.1493 144.904 29.296C143.453 28.4427 141.81 27.568 139.976 26.672C138.141 25.7333 136.306 24.6027 134.472 23.28C132.637 22 131.144 20.592 129.992 19.056C128.84 17.4773 128.264 15.408 128.264 12.848C128.264 8.92267 129.672 6 132.488 4.08C135.304 2.16 138.888 1.2 143.24 1.2C144.306 1.2 145.33 1.264 146.312 1.392C147.336 1.47733 148.274 1.60533 149.128 1.776C150.024 1.94666 150.856 2.13866 151.624 2.352C152.392 2.52266 153.096 2.672 153.736 2.8ZM161.992 20.016C161.693 19.8453 161.33 19.7173 160.904 19.632C160.52 19.504 160.136 19.44 159.752 19.44C159.112 19.44 158.642 19.248 158.344 18.864C158.002 18.48 157.832 18.032 157.832 17.52C157.832 17.0933 158.002 16.7093 158.344 16.368C158.642 16.0267 159.005 15.856 159.432 15.856H166.152C167.176 15.856 167.986 16.1973 168.584 16.88C169.224 17.52 169.544 17.9253 169.544 18.096V20.464C169.672 20.1653 169.928 19.7387 170.312 19.184C170.696 18.5867 171.25 17.9893 171.976 17.392C172.701 16.8373 173.597 16.3467 174.664 15.92C175.73 15.4507 176.989 15.216 178.44 15.216C181.213 15.216 183.304 15.856 184.712 17.136C186.162 18.416 187.08 19.7173 187.464 21.04C187.464 21.04 187.613 20.7413 187.912 20.144C188.21 19.5467 188.722 18.8853 189.448 18.16C190.216 17.4347 191.197 16.7733 192.392 16.176C193.629 15.536 195.165 15.216 197 15.216C200.029 15.216 202.312 16.24 203.848 18.288C205.426 20.336 206.216 23.024 206.216 26.352V47.344H199.944V28.016C199.944 25.8827 199.602 24.0907 198.92 22.64C198.28 21.1467 197.021 20.4 195.144 20.4C193.906 20.4 192.84 20.8053 191.944 21.616C191.048 22.384 190.28 23.3227 189.64 24.432C189.042 25.584 188.594 26.8 188.296 28.08C187.997 29.3173 187.848 30.4267 187.848 31.408V47.344H181.576V26.224C181.576 24.688 181.256 23.3227 180.616 22.128C179.976 20.9333 178.76 20.336 176.968 20.336C176.072 20.336 175.176 20.6773 174.28 21.36C173.426 22 172.637 22.832 171.912 23.856C171.229 24.9227 170.653 26.16 170.184 27.568C169.757 28.9333 169.544 30.3413 169.544 31.792V47.344H163.272V24.56C163.272 24.0053 163.25 23.5147 163.208 23.088C163.208 22.6187 163.165 22.192 163.08 21.808C163.037 21.424 162.909 21.104 162.696 20.848C162.525 20.5493 162.29 20.272 161.992 20.016ZM221.307 47.344H214.971V25.008C214.971 23.5147 214.907 22.4053 214.779 21.68C214.694 20.9547 214.353 20.4 213.755 20.016C213.457 19.888 213.094 19.76 212.667 19.632C212.283 19.504 211.899 19.44 211.515 19.44C210.875 19.44 210.385 19.248 210.043 18.864C209.745 18.48 209.595 18.032 209.595 17.52C209.595 17.0933 209.787 16.7093 210.171 16.368C210.598 16.0267 211.025 15.856 211.451 15.856H217.915C218.939 15.856 219.75 16.24 220.347 17.008C220.987 17.7333 221.307 18.4587 221.307 19.184V47.344ZM212.923 6.128C212.923 4.976 213.35 3.952 214.203 3.056C215.099 2.16 216.166 1.712 217.403 1.712C218.598 1.712 219.643 2.16 220.539 3.056C221.435 3.952 221.883 4.976 221.883 6.128C221.883 7.32266 221.435 8.368 220.539 9.264C219.643 10.1173 218.598 10.544 217.403 10.544C216.166 10.544 215.099 10.1173 214.203 9.264C213.35 8.368 212.923 7.32266 212.923 6.128ZM237.932 4.528V47.344H231.596V9.84C231.596 9.328 231.575 8.85867 231.532 8.432C231.532 7.96266 231.49 7.536 231.404 7.152C231.362 6.768 231.234 6.448 231.02 6.192C230.85 5.89333 230.615 5.616 230.316 5.36C230.018 5.14666 229.655 4.976 229.228 4.848C228.844 4.72 228.46 4.656 228.076 4.656C227.436 4.656 226.946 4.48533 226.604 4.144C226.306 3.80266 226.156 3.376 226.156 2.864C226.156 2.43733 226.306 2.05333 226.604 1.712C226.946 1.37066 227.33 1.2 227.756 1.2H234.54C235.564 1.2 236.375 1.584 236.972 2.352C237.612 3.07733 237.932 3.80267 237.932 4.528ZM261.838 47.984C259.534 47.984 257.38 47.6 255.374 46.832C253.369 46.064 251.598 44.912 250.062 43.376C248.569 41.8827 247.396 40.048 246.542 37.872C245.689 35.696 245.262 33.2213 245.262 30.448C245.262 28.016 245.646 25.8613 246.414 23.984C247.225 22.064 248.334 20.464 249.742 19.184C251.193 17.904 252.878 16.9227 254.798 16.24C256.761 15.5573 258.894 15.216 261.198 15.216C262.862 15.216 264.526 15.536 266.19 16.176C267.897 16.7733 269.412 17.648 270.734 18.8C272.1 19.9947 273.209 21.4667 274.062 23.216C274.916 24.9227 275.342 26.8853 275.342 29.104V32.752H251.982C252.281 35.952 253.369 38.512 255.246 40.432C257.166 42.3093 259.897 43.4187 263.438 43.76C264.036 43.8453 265.188 43.8027 266.894 43.632C268.644 43.4613 270.414 42.992 272.206 42.224C272.718 42.0107 273.166 42.0107 273.55 42.224C273.977 42.4373 274.276 42.736 274.446 43.12C274.617 43.5467 274.638 43.9947 274.51 44.464C274.382 44.9333 274.041 45.3173 273.486 45.616C271.865 46.512 270.158 47.1307 268.366 47.472C266.574 47.8133 264.398 47.984 261.838 47.984ZM261.006 19.12C258.916 19.12 256.953 19.824 255.118 21.232C253.326 22.64 252.281 24.9867 251.982 28.272H268.814C268.814 24.944 268.004 22.5973 266.382 21.232C264.761 19.824 262.969 19.12 261.006 19.12Z" fill="#F0A124"/>
</g>
<defs>
<filter id="filter0_d_15_53" x="0.144531" y="0.199982" width="278.197" height="50.976" filterUnits="userSpaceOnUse" color-interpolation-filters="sRGB">
<feFlood flood-opacity="0" result="BackgroundImageFix"/>
<feColorMatrix in="SourceAlpha" type="matrix" values="0 0 0 0 0 0 0 0 0 0 0 0 0 0 0 0 0 0 127 0" result="hardAlpha"/>
<feOffset dx="1" dy="1"/>
<feGaussianBlur stdDeviation="1"/>
<feColorMatrix type="matrix" values="0 0 0 0 1 0 0 0 0 1 0 0 0 0 1 0 0 0 0.5 0"/>
<feBlend mode="normal" in2="BackgroundImageFix" result="effect1_dropShadow_15_53"/>
<feBlend mode="normal" in="SourceGraphic" in2="effect1_dropShadow_15_53" result="shape"/>
</filter>
</defs>
</svg>
