<svg width="100" height="100" viewBox="0 0 100 100" fill="none" xmlns="http://www.w3.org/2000/svg">
<g clip-path="url(#clip0_16_112)">
<path d="M57.0033 98.5205H10.7871L1.97266 29.8818H49.3557L57.0033 98.5205Z" fill="#FF6243"/>
<path opacity="0.4" d="M19.7398 29.8818L24.6098 98.5205H17.1758L8.36133 29.8818H19.7398Z" fill="#891C00"/>
<path opacity="0.4" d="M48.0469 98.5205L51.4625 71.9225L61.6432 98.5096L48.0469 98.5205Z" fill="#891C00"/>
<path opacity="0.4" d="M45.4834 29.8818L40.6139 98.5205H32.6016V29.8818H45.4834Z" fill="#891C00"/>
<path d="M5.12515 29.8602C5.12515 29.8602 2.06793 28.1836 3.94175 25.8168C5.81558 23.45 7.19624 24.732 7.68941 21.5762C7.68941 21.5762 7.42242 19.4014 9.04078 17.4486C11.0968 14.9682 13.1136 15.3631 13.1136 15.3631C16.072 12.4045 16.7623 6.98048 21.496 7.67072C26.2298 8.36095 26.6244 8.559 28.2023 5.20529C29.7802 1.85138 33.155 0.0769664 37.1382 3.62736C41.1214 7.17775 38.0642 10.3336 40.6285 10.5307C43.1925 10.7279 45.165 7.57208 48.4195 9.54454C51.674 11.517 54.6326 12.8977 51.9699 14.6729C49.3072 16.4481 52.3644 18.8149 54.7312 18.4205C57.098 18.026 55.9146 24.9295 58.3802 24.8309C60.8457 24.7322 60.6107 29.882 60.6107 29.882L5.12515 29.8602Z" fill="#FFE477"/>
<g opacity="0.54">
<path d="M58.5576 24.8307C56.0922 24.9293 57.2756 18.0258 54.9086 18.4203C52.5418 18.8148 49.4846 16.4478 52.1473 14.6726C54.81 12.8975 51.8514 11.5168 48.5969 9.54433C45.4797 7.65507 43.5385 10.4685 41.127 10.5363C43.5865 12.015 45.2096 13.2101 43.0158 14.6726C40.3531 16.4478 43.4104 18.8146 45.7771 18.4203C48.1439 18.0258 46.9605 24.9293 49.4262 24.8307C51.873 24.7328 51.6602 29.8023 51.6568 29.8783L60.7883 29.8818C60.7879 29.8818 61.023 24.732 58.5576 24.8307Z" fill="#EEBF00"/>
<path d="M31.6744 10.5307C34.2385 10.7279 36.2109 7.57207 39.4654 9.54453C39.5395 9.58926 39.6129 9.6334 39.6865 9.67773C39.4225 8.47363 40.1469 6.15078 37.3158 3.62734C33.7053 0.409373 30.5949 1.56601 28.8691 4.3082C31.7957 7.57207 29.2756 10.3461 31.6744 10.5307Z" fill="#EEBF00"/>
</g>
<path d="M50.126 54.2312L48.5488 37.7766H95.1775L89.3566 98.5096H54.3699L51.3082 66.5658L50.126 54.2312Z" fill="#52A2E7"/>
<path d="M83.9629 5.48379L80.7467 2.26758L70.0078 13.0402H70.008V30.9744H74.5562V14.924L83.9629 5.48379Z" fill="#FF6243"/>
<path d="M76.3332 37.7707C76.3332 37.7707 71.8646 43.9855 71.8646 62.807C71.8646 81.6285 86.7188 76.3894 86.7188 98.5096H76.9869C76.9869 76.3894 62.1328 81.6285 62.1328 62.807C62.1328 43.9855 66.6014 37.7707 66.6014 37.7707H76.3332Z" fill="#3C66B1"/>
<path d="M92.1057 29.2734H95.6619L98.0281 37.7707H46.2852L48.6514 29.2734H80.2764H92.1057Z" fill="#C6C3CB"/>
<path opacity="0.43" d="M95.6631 29.2734H92.1068H88.8676L91.2338 37.7707H88.365L82.5625 98.3123H89.358L95.1605 37.7707H98.0293L95.6631 29.2734Z" fill="#3C66B1"/>
<g opacity="0.4">
<path d="M74.5562 21.732H70.0078V29.2744H74.5562V21.732Z" fill="#891C00"/>
</g>
<path d="M16.6814 27.0076C17.3398 27.0076 17.9406 26.5646 18.1129 25.8975C18.1182 25.8766 18.7203 23.7891 20.1994 23.5279C20.9684 23.3922 21.4867 23.3998 21.9443 23.406C23.1055 23.4223 24.0148 23.3305 25.1225 21.9918C25.2277 21.8646 25.34 21.7248 25.4592 21.5756C26.8547 19.832 28.1748 18.442 30.1967 19.0971C31.1828 19.4166 31.8898 19.8412 32.5734 20.2521C34.1162 21.1793 35.7119 22.1381 39.0195 20.8727C39.7826 20.5807 40.1643 19.7254 39.8725 18.9621C39.5805 18.199 38.7254 17.8178 37.9621 18.1092C36.0006 18.8598 35.4436 18.525 34.0977 17.7162C33.349 17.2662 32.417 16.706 31.1088 16.2822C26.9772 14.9434 24.392 18.1744 23.1496 19.7268C23.0412 19.8625 22.9393 19.9896 22.8438 20.1055C22.6193 20.3768 22.518 20.4338 22.5197 20.434C22.4488 20.4537 22.1926 20.4504 21.9865 20.4473C21.4563 20.44 20.7305 20.4297 19.6855 20.6141C16.3041 21.2105 15.2898 24.9969 15.2484 25.1576C15.0443 25.9488 15.5201 26.7557 16.3111 26.9596C16.4348 26.9922 16.559 27.0076 16.6814 27.0076Z" fill="black"/>
<path d="M99.4535 37.3738L97.0875 28.8766C96.9094 28.2367 96.3266 27.7941 95.6625 27.7941H92.1062C91.2893 27.7941 90.6269 28.4563 90.6269 29.2734C90.6269 30.0906 91.2893 30.7527 92.1062 30.7527H94.5389L96.081 36.2914H48.2334L49.7756 30.7527H70.0088H74.5574H80.2769C81.0939 30.7527 81.7562 30.0906 81.7562 29.2734C81.7562 28.4563 81.0939 27.7941 80.2769 27.7941H76.0367V15.5354L85.0117 6.52793C85.5877 5.94981 85.5869 5.01465 85.0098 4.4375L81.7934 1.2211C81.5158 0.943751 81.1396 0.787892 80.7475 0.787892C80.7471 0.787892 80.7467 0.787892 80.7463 0.787892C80.3535 0.788283 79.9769 0.944728 79.6998 1.22285L68.9609 11.9959C68.6846 12.2732 68.5293 12.6488 68.5293 13.0402V27.7941H62.4988C62.1836 25.7809 61.0935 23.1695 58.5131 23.1469C58.2887 22.7461 58.0916 21.6818 57.9693 21.0205C57.8039 20.1271 57.6328 19.2033 57.3018 18.4584C56.4918 16.6361 55.0641 16.6635 54.4883 16.7588C53.5621 16.9141 52.6033 16.3334 52.4332 16.0137C52.4777 15.9523 52.5836 15.8395 52.7908 15.7014C53.9389 14.9361 54.5076 14.0361 54.481 13.0262C54.4328 11.1932 52.5387 10.0697 50.1406 8.64707C49.8291 8.46231 49.5094 8.27266 49.1867 8.07695C46.5146 6.45742 44.3809 7.46582 42.8227 8.20195C42.1078 8.53985 41.481 8.83594 40.9223 8.85664C40.9154 8.72969 40.9111 8.58828 40.9076 8.46758C40.8662 7.05996 40.7967 4.70371 38.1232 2.32051C35.473 -0.0410141 33.1859 -0.183397 31.7332 0.113478C29.6893 0.531056 27.9598 2.04375 26.8637 4.37324C26.3525 5.45938 25.9441 6.2084 25.6117 6.33301C25.1422 6.50938 23.9189 6.3291 22.2268 6.08047L21.7094 6.00449C17.5412 5.39746 15.7086 8.51074 14.2359 11.0133C13.5803 12.1275 12.9023 13.2795 12.067 14.1148C11.4893 14.6928 11.4893 15.6293 12.067 16.207C12.6447 16.7846 13.5814 16.7846 14.159 16.207C15.2607 15.1051 16.0361 13.7877 16.7855 12.5137C18.2947 9.94981 19.1799 8.62461 21.282 8.93242L21.7961 9.00781C24.1625 9.35528 25.466 9.54727 26.6498 9.10352C28.0672 8.57207 28.742 7.32988 29.5402 5.63281C30.2189 4.19043 31.2338 3.23516 32.3246 3.01231C33.7553 2.7207 35.1963 3.67617 36.1535 4.5293C37.876 6.06465 37.9148 7.3875 37.9492 8.55469C37.9783 9.54746 38.0394 11.6129 40.5144 11.8033C41.8986 11.9107 43.0609 11.3613 44.0855 10.8773C45.5668 10.1773 46.3984 9.84766 47.6521 10.6074C47.983 10.808 48.3107 11.0023 48.6301 11.1918C49.5689 11.7488 50.9271 12.5545 51.4027 13.052C51.3412 13.1037 51.2586 13.1666 51.1486 13.2397C49.6641 14.2297 49.1084 15.6572 49.6627 17.0588C50.3301 18.7465 52.5482 19.9135 54.6277 19.7215C54.7986 20.1514 54.9572 21.0086 55.0594 21.5592C55.4021 23.4102 55.9189 26.2023 58.4387 26.1064C58.4435 26.1063 58.4484 26.1061 58.4535 26.1061C58.9123 26.1061 59.276 26.9609 59.475 27.7941H48.6512C48.1689 27.7941 47.7316 28.0295 47.459 28.4023H5.90409C5.88163 28.3883 5.85995 28.3736 5.83671 28.3607C5.60956 28.2361 4.91874 27.7207 4.82343 27.2496C4.80878 27.1777 4.76445 26.9584 5.10175 26.5324C5.67265 25.8113 6.12636 25.574 6.65195 25.2988C7.83749 24.6785 8.77441 24.0125 9.15116 21.602C9.27714 20.7947 8.72519 20.0381 7.91796 19.9119C7.11249 19.7859 6.35429 20.3379 6.22792 21.1451C6.05155 22.274 5.93378 22.3357 5.28046 22.6777C4.63202 23.017 3.74355 23.4816 2.78222 24.6961C1.79882 25.9385 1.77245 27.0898 1.92382 27.8369C1.96386 28.0352 2.02323 28.2221 2.09179 28.4022H1.97167C1.54648 28.4022 1.14179 28.5852 0.86093 28.9043C0.580071 29.2234 0.449993 29.6481 0.504289 30.0697L9.31894 98.7084C9.41366 99.4465 10.042 99.9994 10.7861 99.9994H17.1703C17.1717 99.9994 17.173 99.9996 17.1744 99.9996C17.1754 99.9996 17.1764 99.9994 17.1773 99.9994H48.0461C48.0471 99.9994 48.048 99.9996 48.049 99.9996C48.0504 99.9996 48.0518 99.9994 48.0531 99.9994H57.0021C57.0609 99.9994 57.1184 99.9951 57.1754 99.9883H89.3568C90.1191 99.9883 90.7566 99.4088 90.8295 98.6502L96.5228 39.2496H98.0281C98.4906 39.2496 98.9264 39.0332 99.206 38.665C99.4861 38.2975 99.5775 37.8195 99.4535 37.3738ZM71.4879 13.6514L80.749 4.36094L81.8734 5.48535L73.5092 13.8797C73.233 14.157 73.0777 14.5326 73.0777 14.9238V27.7939H71.4877L71.4879 13.6514ZM55.7146 97.0303L52.7812 66.4246C52.7031 65.6113 51.9795 65.0139 51.1676 65.0932C50.3541 65.1713 49.758 65.8938 49.8361 66.707L52.7433 97.0412H49.7287L51.3414 84.4832C51.4453 83.6729 50.873 82.9316 50.0625 82.8275C49.2516 82.7223 48.5107 83.2959 48.4068 84.1062L46.7457 97.0412H42.2014L46.3016 39.25H47.2043L48.6539 54.3725C48.7318 55.1857 49.4535 55.7824 50.2678 55.7039C51.081 55.6258 51.6771 54.9033 51.5992 54.09L50.1775 39.2559H64.1853C62.7771 42.5881 60.6527 49.774 60.6527 62.8068C60.6527 72.4416 64.4148 76.2824 68.0529 79.9969C71.7068 83.7271 75.1648 87.2654 75.4809 97.0299H55.7146V97.0303ZM34.0809 97.0412V31.3611H43.8955L39.2355 97.0414L34.0809 97.0412ZM25.9887 97.0412L21.3287 31.3609H31.1223V97.0412H25.9887ZM18.4781 97.0412L10.0435 31.3611H18.3625L23.0225 97.0414L18.4781 97.0412ZM70.1664 77.9269C66.649 74.3357 63.6111 71.2342 63.6111 62.807C63.6111 48.0311 66.4334 41.2262 67.4494 39.2561H73.917C72.5086 42.5883 70.3844 49.7742 70.3844 62.807C70.3844 72.4418 74.1465 76.2826 77.7846 79.9971C81.4385 83.7273 84.8965 87.2656 85.2125 97.0301H78.4394C78.0937 86.0277 73.8934 81.7316 70.1664 77.9269ZM3.65312 31.3611H7.06073L15.4953 97.0414H12.0877L3.65312 31.3611ZM88.1213 95.8998C87.532 85.7281 83.4947 81.5984 79.8986 77.9269C76.381 74.3357 73.3434 71.2342 73.3434 62.807C73.3434 48.0311 76.1656 41.2262 77.1816 39.2561H93.5504L88.1213 95.8998Z" fill="black"/>
</g>
<defs>
<clipPath id="clip0_16_112">
<rect width="100" height="100" fill="white"/>
</clipPath>
</defs>
</svg>
