<svg width="16" height="36" viewBox="0 0 16 36" fill="none" xmlns="http://www.w3.org/2000/svg">
<path fill-rule="evenodd" clip-rule="evenodd" d="M0.604585 0.767112C0.412919 1.01161 0.260865 1.3024 0.157121 1.62285C0.053377 1.9433 -2.11843e-05 2.28713 -2.11843e-05 2.63467C-2.11843e-05 2.9822 0.053377 3.32663 0.157121 3.64826C0.260865 3.96989 0.412919 4.2624 0.604585 4.50907L10.9272 17.7962L0.604585 30.9664C0.412919 31.2109 0.260865 31.5017 0.157121 31.8222C0.053377 32.1426 -2.11843e-05 32.4864 -2.11843e-05 32.834C-2.11843e-05 33.1815 0.053377 33.5259 0.157121 33.8476C0.260865 34.1692 0.412919 34.4617 0.604585 34.7084C0.992101 35.2069 1.51729 35.4886 2.06485 35.4917C2.61241 35.4948 3.1376 35.2191 3.52511 34.7249L15.2033 19.8232C15.4076 19.5635 15.5668 19.2512 15.6707 18.9067C15.7745 18.5623 15.8206 18.1933 15.8059 17.8238C15.8206 17.4545 15.7745 17.085 15.6707 16.7394C15.5668 16.3938 15.4076 16.0797 15.2033 15.8176L3.52511 0.783653C3.1376 0.285127 2.61241 0.00338855 2.06485 0.000287446C1.51729 -0.00281366 0.992101 0.272976 0.604585 0.767112Z" fill="black"/>
</svg>
