<svg width="51" height="51" viewBox="0 0 51 51" fill="none" xmlns="http://www.w3.org/2000/svg">
<path d="M30.8242 6.60568C32.3867 6.60568 33.6367 7.23068 34.7305 8.16818C36.918 10.3557 36.918 13.7932 34.7305 15.9807L25.8242 25.0432C25.668 25.1994 25.668 25.3557 25.8242 25.5119L34.7305 34.5744C36.918 36.7619 36.918 40.1994 34.7305 42.3869C33.6367 43.4807 32.2305 43.9494 30.8242 43.9494C29.2617 43.9494 28.0117 43.3244 26.918 42.3869L12.3867 27.6994C10.9805 26.2932 10.9805 24.1057 12.3867 22.8557L26.918 8.16818C27.8555 7.23068 29.2617 6.60568 30.8242 6.60568Z" fill="white"/>
</svg>
