<svg width="50" height="50" viewBox="0 0 50 50" fill="none" xmlns="http://www.w3.org/2000/svg">
<path d="M19.5312 43.75C17.9688 43.75 16.7188 43.125 15.625 42.1875C13.4375 40 13.4375 36.5625 15.625 34.375L24.5312 25.3125C24.6875 25.1562 24.6875 25 24.5312 24.8437L15.625 15.7813C13.4375 13.5938 13.4375 10.1562 15.625 7.96875C16.7188 6.875 18.125 6.40625 19.5312 6.40625C21.0938 6.40625 22.3438 7.03125 23.4375 7.96875L37.9688 22.6562C39.375 24.0625 39.375 26.25 37.9688 27.5L23.4375 42.1875C22.5 43.125 21.0938 43.75 19.5312 43.75Z" fill="#FEFEFE"/>
</svg>
