<svg width="18" height="36" viewBox="0 0 18 36" fill="none" xmlns="http://www.w3.org/2000/svg">
<path fill-rule="evenodd" clip-rule="evenodd" d="M16.7432 0.783982C16.9542 1.03076 17.1217 1.32336 17.2359 1.64505C17.3502 1.96673 17.409 2.31119 17.409 2.65873C17.409 3.00627 17.3502 3.35006 17.2359 3.67046C17.1217 3.99085 16.9542 4.28155 16.7432 4.52594L5.37556 17.6902L16.7432 30.9833C16.9542 31.2301 17.1217 31.5227 17.2359 31.8444C17.3502 32.166 17.409 32.5105 17.409 32.858C17.409 33.2056 17.3502 33.5494 17.2359 33.8698C17.1217 34.1902 16.9542 34.4809 16.7432 34.7252C16.3164 35.2192 15.7381 35.4947 15.1351 35.4912C14.5321 35.4878 13.9537 35.2058 13.527 34.707L0.666617 19.6664C0.4416 19.4042 0.266222 19.09 0.151879 18.7443C0.0375353 18.3986 -0.0132143 18.0291 0.00292712 17.6598C-0.0132143 17.2903 0.0375353 16.9214 0.151879 16.577C0.266222 16.2326 0.4416 15.9204 0.666617 15.6608L13.527 0.765768C13.9537 0.271854 14.5321 -0.00363507 15.1351 -0.00022002C15.7381 0.00319502 16.3164 0.285235 16.7432 0.783982Z" fill="black"/>
</svg>
