<svg width="73" height="51" viewBox="0 0 73 51" fill="none" xmlns="http://www.w3.org/2000/svg">
<g filter="url(#filter0_d_2009_100)">
<path d="M37.6722 44.584C36.3069 45.48 34.5149 46.2053 32.2962 46.76C30.0776 47.3573 27.7309 47.6987 25.2562 47.784C21.5442 47.912 18.1736 47.3787 15.1442 46.184C12.1576 44.9893 9.61889 43.304 7.52822 41.128C5.43755 38.952 3.81622 36.392 2.66422 33.448C1.55489 30.4613 1.00022 27.2613 1.00022 23.848C1.00022 20.4773 1.49089 17.4053 2.47222 14.632C3.49622 11.8587 4.94689 9.46932 6.82422 7.46399C8.70155 5.50132 10.9629 3.98665 13.6082 2.91999C16.2962 1.81065 19.3042 1.25599 22.6322 1.25599C24.9789 1.25599 27.1122 1.59732 29.0322 2.27999C30.9949 2.91999 32.6802 3.75199 34.0882 4.77599C35.4536 5.84265 36.5202 7.03732 37.2882 8.35999C38.0562 9.63999 38.4402 10.92 38.4402 12.2H31.0802C31.0802 11.5173 30.8882 10.8133 30.5042 10.088C30.1202 9.31999 29.5656 8.63732 28.8402 8.03999C28.1149 7.39999 27.1976 6.88799 26.0882 6.50399C24.9789 6.07732 23.7202 5.86399 22.3122 5.86399C21.0749 5.86399 19.6456 6.11999 18.0242 6.63198C16.4029 7.10132 14.8669 7.95465 13.4162 9.19199C11.9656 10.472 10.7282 12.2213 9.70422 14.44C8.72289 16.616 8.23222 19.432 8.23222 22.888C8.23222 25.6187 8.59489 28.2213 9.32022 30.696C10.0456 33.128 11.1336 35.2613 12.5842 37.096C13.9922 38.9733 15.7416 40.4453 17.8322 41.512C19.9656 42.5787 22.3976 43.112 25.1282 43.112C26.9629 43.112 28.8829 42.92 30.8882 42.536C32.8936 42.152 34.7496 41.512 36.4562 40.616C36.9682 40.36 37.4162 40.36 37.8002 40.616C38.2269 40.8293 38.5256 41.1707 38.6962 41.64C38.8669 42.1093 38.8669 42.6213 38.6962 43.176C38.5682 43.7307 38.2269 44.2 37.6722 44.584ZM66.8412 2.59999V8.42398C65.3052 7.69865 63.6626 7.01599 61.9132 6.37598C60.1639 5.73598 58.0092 5.41599 55.4492 5.41599C53.2306 5.41599 51.4386 5.94932 50.0732 7.01599C48.7506 8.03999 48.0892 9.51199 48.0892 11.432C48.0892 13.0107 48.4732 14.3547 49.2412 15.464C50.0092 16.5307 51.3746 17.6827 53.3372 18.92C54.7026 19.816 56.3239 20.712 58.2012 21.608C60.0786 22.504 61.8706 23.528 63.5772 24.68C65.2839 25.832 66.7346 27.1973 67.9292 28.776C69.1239 30.312 69.7212 32.1893 69.7212 34.408C69.7212 37.608 68.8039 40.296 66.9692 42.472C65.1346 44.6053 62.5746 46.0773 59.2892 46.888C57.7532 47.272 56.1746 47.5067 54.5532 47.592C52.9746 47.72 51.4599 47.7413 50.0092 47.656C48.5586 47.528 47.2146 47.336 45.9772 47.08C44.7826 46.8667 43.8439 46.5893 43.1612 46.248C42.2652 45.9067 41.6679 45.3733 41.3692 44.648C41.0706 43.88 40.9852 43.176 41.1132 42.536C41.2412 41.8533 41.5826 41.3413 42.1372 41C42.6919 40.616 43.4172 40.5947 44.3132 40.936C45.2092 41.3627 46.3399 41.768 47.7052 42.152C49.0706 42.4933 50.4786 42.728 51.9292 42.856C53.3799 42.984 54.8092 42.9413 56.2172 42.728C57.6679 42.5147 58.9266 42.0027 59.9932 41.192C60.7186 40.68 61.3799 39.912 61.9772 38.888C62.5746 37.8213 62.8732 36.6053 62.8732 35.24C62.8732 33.9173 62.4039 32.7867 61.4652 31.848C60.5692 30.8667 59.4172 29.9493 58.0092 29.096C56.5586 28.2427 54.9159 27.368 53.0812 26.472C51.2466 25.5333 49.4119 24.4027 47.5772 23.08C45.7426 21.8 44.2492 20.392 43.0972 18.856C41.9452 17.2773 41.3692 15.208 41.3692 12.648C41.3692 8.72265 42.7772 5.79999 45.5932 3.87999C48.4092 1.95999 51.9932 0.999985 56.3452 0.999985C57.4119 0.999985 58.4359 1.06399 59.4172 1.19199C60.4412 1.27732 61.3799 1.40532 62.2332 1.57598C63.1292 1.74665 63.9612 1.93865 64.7292 2.15199C65.4972 2.32265 66.2012 2.47199 66.8412 2.59999Z" fill="#F0A124"/>
</g>
<defs>
<filter id="filter0_d_2009_100" x="0" y="0" width="72.7217" height="50.976" filterUnits="userSpaceOnUse" color-interpolation-filters="sRGB">
<feFlood flood-opacity="0" result="BackgroundImageFix"/>
<feColorMatrix in="SourceAlpha" type="matrix" values="0 0 0 0 0 0 0 0 0 0 0 0 0 0 0 0 0 0 127 0" result="hardAlpha"/>
<feOffset dx="1" dy="1"/>
<feGaussianBlur stdDeviation="1"/>
<feColorMatrix type="matrix" values="0 0 0 0 1 0 0 0 0 1 0 0 0 0 1 0 0 0 0.5 0"/>
<feBlend mode="normal" in2="BackgroundImageFix" result="effect1_dropShadow_2009_100"/>
<feBlend mode="normal" in="SourceGraphic" in2="effect1_dropShadow_2009_100" result="shape"/>
</filter>
</defs>
</svg>
